HIERARCHY
ROOT Hips
{
 OFFSET 0.000000 0.000000 0.000000
 CHANNELS 6 Xposition Yposition Zposition Yrotation Xrotation Zrotation
 JOINT Chest
 {
  OFFSET 0.000000 11.395451 -0.039534
  CHANNELS 3 Yrotation Xrotation Zrotation
  JOINT Chest2
  {
   OFFSET 0.000000 9.398669 0.071813
   CHANNELS 3 Yrotation Xrotation Zrotation
   JOINT Chest3
   {
    OFFSET 0.000000 8.489801 0.000000
    CHANNELS 3 Yrotation Xrotation Zrotation
    JOINT Chest4
    {
     OFFSET 0.000000 8.489801 0.000000
     CHANNELS 3 Yrotation Xrotation Zrotation
     JOINT Neck
     {
      OFFSET 0.000000 12.404889 0.000000
      CHANNELS 3 Yrotation Xrotation Zrotation
      JOINT Head
      {
       OFFSET 0.000000 8.903270 0.092239
       CHANNELS 3 Yrotation Xrotation Zrotation
       End Site
       {
        OFFSET 0.000000 17.592497 0.007158
       }
      }
     }
     JOINT RightCollar
     {
      OFFSET -3.196775 6.966722 0.000000
      CHANNELS 3 Yrotation Xrotation Zrotation
      JOINT RightShoulder
      {
       OFFSET -15.955896 0.000000 0.000000
       CHANNELS 3 Yrotation Xrotation Zrotation
       JOINT RightElbow
       {
        OFFSET -24.792472 0.000000 0.000000
        CHANNELS 3 Yrotation Xrotation Zrotation
        JOINT RightWrist
        {
         OFFSET -20.900115 0.000000 0.025002
         CHANNELS 3 Yrotation Xrotation Zrotation
         End Site
         {
          OFFSET -16.056692 0.000000 0.000000
         }
        }
       }
      }
     }
     JOINT LeftCollar
     {
      OFFSET 3.196775 6.966722 0.000000
      CHANNELS 3 Yrotation Xrotation Zrotation
      JOINT LeftShoulder
      {
       OFFSET 15.955896 0.000000 0.000000
       CHANNELS 3 Yrotation Xrotation Zrotation
       JOINT LeftElbow
       {
        OFFSET 24.792472 0.000000 0.000000
        CHANNELS 3 Yrotation Xrotation Zrotation
        JOINT LeftWrist
        {
         OFFSET 20.900115 0.000000 0.025002
         CHANNELS 3 Yrotation Xrotation Zrotation
         End Site
         {
          OFFSET 16.056692 0.000000 0.000000
         }
        }
       }
      }
     }
    }
   }
  }
 }
 JOINT RightHip
 {
  OFFSET -9.568995 0.193718 0.019767
  CHANNELS 3 Yrotation Xrotation Zrotation
  JOINT RightKnee
  {
   OFFSET 0.000000 -56.649296 0.015402
   CHANNELS 3 Yrotation Xrotation Zrotation
   JOINT RightAnkle
   {
    OFFSET 0.000000 -41.365147 0.021264
    CHANNELS 3 Yrotation Xrotation Zrotation
    JOINT RightToe
    {
     OFFSET 0.000000 -7.465940 17.672538
     CHANNELS 3 Yrotation Xrotation Zrotation
     End Site
     {
      OFFSET 0.000000 -1.736315 7.837145
     }
    }
   }
  }
 }
 JOINT LeftHip
 {
  OFFSET 9.568995 0.193718 0.019767
  CHANNELS 3 Yrotation Xrotation Zrotation
  JOINT LeftKnee
  {
   OFFSET 0.000000 -56.649296 0.015402
   CHANNELS 3 Yrotation Xrotation Zrotation
   JOINT LeftAnkle
   {
    OFFSET 0.000000 -41.365147 0.021264
    CHANNELS 3 Yrotation Xrotation Zrotation
    JOINT LeftToe
    {
     OFFSET 0.000000 -7.465940 17.672538
     CHANNELS 3 Yrotation Xrotation Zrotation
     End Site
     {
      OFFSET 0.000000 -1.736315 7.837145
     }
    }
   }
  }
 }
}
MOTION
Frames: 8
Frame Time: 0.016667
39.138123 104.590394 202.477440 -105.203143 6.128345 -1.584683 5.554420 6.363575 0.481894 2.458087 2.833869 0.137536 2.458087 2.833869 0.137536 1.842551 2.125996 0.091727 8.956093 9.889779 -5.573069 19.856106 -16.177826 -14.820348 -2.050182 5.432155 6.224639 46.473291 -30.663197 29.911156 32.477773 -38.998934 31.727174 -11.281034 -23.937456 6.364209 4.938533 2.589757 -3.598115 15.842468 -16.268643 -55.198258 -31.006418 -58.636342 -42.496109 15.169044 -12.895001 -8.750394 -25.525146 -9.912128 -1.666658 -14.303170 20.021168 -3.138850 -19.174072 -12.419687 5.272797 0.000000 0.000000 0.000000 32.230487 -27.404789 -1.914361 20.859598 17.252473 1.464501 8.518830 -8.913651 2.502566 0.000000 -0.000000 -0.000000
38.107322 104.483555 202.997749 -104.509785 6.012250 -1.759089 5.624850 6.311443 0.286149 2.492158 2.808417 0.050350 2.492172 2.808425 0.050347 1.868530 2.106570 0.026290 8.971864 9.829911 -5.571853 19.900391 -16.284101 -14.839612 -1.955245 4.756031 6.316975 46.105980 -30.249971 30.666248 32.448303 -38.898271 31.640053 -11.336286 -23.864013 6.441212 4.963849 1.743256 -3.761043 16.242411 -15.386096 -54.579222 -30.417470 -58.442137 -43.366217 14.880468 -12.946300 -8.776051 -25.258650 -9.432051 -2.150309 -14.820558 20.173118 -3.432513 -19.592952 -12.269442 5.999688 0.000000 0.000000 0.000000 31.648211 -26.400367 -1.754474 20.989504 16.340311 1.070428 8.854281 -7.274667 2.718473 0.000000 -0.000000 0.000000
37.018031 104.400469 203.562668 -103.818973 5.848903 -1.865804 5.674776 6.304548 0.038776 2.517731 2.802370 -0.060020 2.517760 2.802374 -0.060033 1.888231 2.101575 -0.056581 8.983923 9.726044 -5.564282 19.945725 -16.472940 -14.856494 -1.867904 3.872435 6.461146 45.656900 -29.692265 31.567568 32.418989 -38.777715 31.561245 -11.408324 -23.786772 6.534354 4.940238 0.712692 -3.929888 16.646042 -14.309648 -53.789052 -29.750900 -58.250874 -44.301546 14.526368 -13.012299 -8.840708 -24.940863 -8.951864 -2.718401 -15.351895 20.391509 -3.825093 -20.019254 -12.071754 6.781733 0.000000 0.000000 0.000000 30.888488 -25.258594 -1.601586 20.863539 15.237510 0.542790 9.571549 -5.308530 2.746169 -0.000000 -0.000000 0.000000
35.964159 104.323941 204.184198 -103.000293 5.685344 -1.878593 5.689673 6.383325 -0.254499 2.528210 2.833773 -0.191314 2.528210 2.833773 -0.191314 1.896659 2.124582 -0.155190 8.945271 9.582676 -5.542826 19.896969 -16.747811 -14.835155 -1.841717 3.462054 6.402273 45.371675 -29.712266 32.207777 32.415671 -38.646389 31.472974 -11.478376 -23.720816 6.578961 4.773248 0.496474 -3.983463 16.986584 -14.056138 -53.417800 -29.381354 -58.210761 -44.903142 14.274840 -13.068968 -8.850902 -24.502963 -8.591423 -3.406397 -16.021602 20.790441 -4.235167 -20.450742 -11.730518 7.364720 0.000000 0.000000 0.000000 29.801550 -24.431585 -1.566140 20.096467 14.890833 0.175713 10.942901 -4.105188 2.593041 0.000000 0.000000 0.000000
35.004203 104.240821 204.873182 -101.996056 5.539629 -1.760345 5.641657 6.618430 -0.617697 2.511814 2.933847 -0.354618 2.511783 2.933844 -0.354585 1.885124 2.198977 -0.277926 8.844294 9.331843 -5.510556 19.749267 -17.235433 -14.792683 -1.908000 4.031185 5.947834 45.456109 -30.944572 32.289598 32.458896 -38.451746 31.386586 -11.553905 -23.672086 6.534077 4.423011 1.839309 -3.765697 17.262878 -15.306627 -53.953718 -29.588411 -58.455884 -44.912848 14.202934 -13.114263 -8.779385 -23.792444 -8.369245 -4.230194 -16.991396 21.372122 -4.643255 -20.894700 -11.295328 7.619967 0.000000 0.000000 0.000000 27.990586 -24.285350 -1.661818 18.012902 16.054448 0.069373 13.816290 -4.306669 2.016370 0.000000 0.000000 0.000000
34.079666 104.164259 205.618778 -100.864900 5.388231 -1.549247 5.557124 6.943584 -1.021489 2.480379 3.073641 -0.536388 2.480353 3.073633 -0.536353 1.862518 2.303098 -0.414632 8.689827 9.043821 -5.464808 19.502404 -17.805912 -14.710526 -2.014778 5.086154 5.315934 45.700682 -32.747276 32.073094 32.527666 -38.245657 31.289461 -11.630385 -23.636783 6.442079 3.998907 3.999509 -3.399524 17.453950 -17.339284 -54.965647 -30.087027 -58.865828 -44.608256 14.227386 -13.147520 -8.645008 -22.959441 -8.242017 -5.178556 -18.096503 22.140363 -5.066808 -21.336851 -10.714419 7.679339 0.000000 0.000000 0.000000 25.846971 -24.460707 -1.876904 15.266793 18.007436 -0.016955 17.345445 -5.225904 1.134974 0.000000 0.000000 0.000000
33.108961 104.116511 206.400462 -99.650860 5.217483 -1.331930 5.504383 7.192824 -1.382747 2.462905 3.180293 -0.698768 2.462905 3.180293 -0.698768 1.850346 2.382454 -0.536780 8.471679 8.931417 -5.386523 19.075726 -18.075389 -14.493377 -2.067624 5.806719 4.868512 45.669573 -33.935421 32.041884 32.587013 -38.194076 31.127283 -11.670888 -23.614728 6.362439 3.593006 5.745093 -3.178787 17.415458 -19.060924 -55.654457 -30.383121 -59.216361 -44.412858 14.271069 -13.144697 -8.420206 -22.383628 -8.243130 -6.253469 -18.965418 23.210174 -5.476633 -21.729243 -9.741319 7.681255 0.000000 -0.000000 0.000000 24.398123 -24.317542 -2.286413 13.483656 19.439404 -0.082364 19.239015 -6.018785 0.587778 0.000000 0.000000 0.000000
32.058811 104.119475 207.220980 -98.344861 5.032984 -1.124950 5.512198 7.300964 -1.687205 2.471340 3.224747 -0.835181 2.471329 3.224766 -0.835192 1.857411 2.415263 -0.639302 8.174424 9.099272 -5.261753 18.407147 -17.857299 -14.081481 -2.044905 5.816053 4.743988 45.203624 -33.952631 32.451475 32.622466 -38.425563 30.823981 -11.645835 -23.606908 6.303551 3.103207 6.684411 -3.287399 17.026643 -20.160099 -55.594133 -30.234096 -59.467869 -44.511493 14.296087 -13.095134 -8.071721 -22.292373 -8.438292 -7.513196 -19.350389 24.701558 -5.830113 -22.154840 -8.256460 7.863916 -0.004831 0.211294 -0.902611 24.202586 -23.483847 -2.948684 14.024863 19.592268 0.146947 17.720393 -6.318240 0.871925 0.000000 0.000000 0.000000
